<svg width="688" height="356" viewBox="0 0 688 356" fill="none" xmlns="http://www.w3.org/2000/svg">
<g clip-path="url(#clip0_2502_119952)">
<path d="M0.242188 324.757H24.9677C35.5499 324.757 41.2946 328.889 41.2946 339.942C41.2946 345.687 36.457 355.127 24.2286 355.127H0.242188V324.757ZM15.5948 345.855H19.0551C22.7169 345.855 25.1356 343.973 25.1356 339.976C25.1356 336.818 23.8591 335.172 19.7269 335.172H15.5948V345.855Z" fill="black"/>
<path d="M45.9766 324.757H74.6998C81.5866 324.757 85.618 327.949 85.618 333.693C85.618 339.74 80.9484 342.193 76.1779 342.562L86.7266 355.093H68.5856L61.3964 345.317H61.3292V355.093H45.9766V324.757ZM61.2956 339.169H65.9988C69.4927 339.169 70.2653 338.027 70.2653 335.776C70.2653 333.861 68.9887 333.089 66.2676 333.089H61.2956V339.169Z" fill="black"/>
<path d="M127.02 344.578C127.02 354.253 117.849 356 108.678 356C99.876 356 90.2344 354.253 90.2344 344.578V324.757H105.587V343.705C105.587 346.56 107.3 347.098 108.913 347.098C110.492 347.098 112.104 346.527 112.104 343.705V324.757H127.054V344.578H127.02Z" fill="black"/>
<path d="M133.526 324.757H153.044L157.714 340.446H157.815L162.35 324.757H181.734V355.093H167.322V338.901H167.221L161.913 355.093H153.414L148.005 338.901H147.904V355.093H133.492V324.757H133.526Z" fill="black"/>
<path d="M207.76 324.757H227.279L231.948 340.446H232.049L236.584 324.757H255.968V355.093H241.556V338.901H241.455L236.147 355.093H227.648L222.239 338.901H222.139V355.093H207.727V324.757H207.76Z" fill="black"/>
<path d="M269.22 324.757H293.542L303.318 355.093H287.461L286.487 351.23H276.342L275.2 355.093H259.578L269.22 324.757ZM281.381 331.812H281.247L278.055 342.898H284.64L281.381 331.812Z" fill="black"/>
<path d="M339.564 337.317C336.305 336.343 331.669 336.175 328.646 336.175C323.371 336.175 320.516 336.813 320.516 341.214C320.516 345.212 323.909 345.581 327.134 345.581C331.165 345.581 334.39 345.145 339.43 344.17V354.316C335.701 355.223 329.687 355.962 324.144 355.962C312.285 355.962 304.391 351.796 304.391 339.4C304.391 327.743 313.26 323.846 324.144 323.846C329.721 323.846 334.592 324.484 339.564 325.324V337.317Z" fill="black"/>
<path d="M345.672 324.757H361.025V335.776H369.02V324.757H384.373V355.093H369.02V345.787H361.025V355.093H345.672V324.757Z" fill="black"/>
<path d="M390.914 324.757H406.267V355.093H390.914V324.757Z" fill="black"/>
<path d="M412.734 324.757H428.121L436.922 337.422H437.023V324.757H451.435V355.093H437.93L427.281 341.319H427.18V355.093H412.768V324.757H412.734Z" fill="black"/>
<path d="M457.852 324.757H492.118V334.365H473.204V337.254H492.118V344.309H473.204V347.165H492.118V355.127H457.852V324.757Z" fill="black"/>
<path d="M517.776 324.757H551.505V335.172H533.095V338.262H551.505V347.534H533.095V355.093H517.742V324.757H517.776Z" fill="black"/>
<path d="M594.387 344.578C594.387 354.253 585.216 356 576.045 356C567.243 356 557.602 354.253 557.602 344.578V324.757H572.954V343.705C572.954 346.56 574.668 347.098 576.28 347.098C577.859 347.098 579.472 346.527 579.472 343.705V324.757H594.421V344.578H594.387Z" fill="black"/>
<path d="M600.805 324.757H616.191L624.993 337.422H625.06V324.757H639.472V355.093H625.967L615.318 341.319H615.217V355.093H600.805V324.757Z" fill="black"/>
<path d="M645.922 324.757H661.275V336.583H661.375L668.766 324.757H687.176L674.376 340.446L686.437 355.093H668.9L661.375 345.149H661.275V355.093H645.922V324.757Z" fill="black"/>
<path d="M685.197 96.9199V0H475.534V160.178H473.116L438.648 0H357.148L338.906 73.0006H337.696L319.018 0H241.549L216.353 103.706C200.564 44.0759 147.888 0 79.725 0H1.04688V283.873H79.725C121.819 283.873 158 267.042 183.229 240.032L172.614 283.873H251.292L265.905 223.84H268.324L278.066 283.873H350.664L365.277 223.84H367.696L377.842 283.873H588.714V200.727H685.231V131.388L588.714 102.194V96.9199H685.197ZM93.1292 182.485V100.985C109.758 100.985 122.726 118.017 122.726 141.533C122.726 165.452 109.758 182.485 93.1292 182.485Z" fill="black"/>
</g>
<defs>
<clipPath id="clip0_2502_119952">
<rect width="686.905" height="356" fill="white" transform="translate(0.242188)"/>
</clipPath>
</defs>
</svg>
